<svg width="1205" height="1074" viewBox="0 0 1205 1074" fill="none" xmlns="http://www.w3.org/2000/svg">
<g filter="url(#filter0_g_57_161)">
<path d="M237.822 102.106C195.267 148.204 170.443 109.198 132.616 102.106C99.5175 134.02 147.983 175.39 116.067 243.945C84.1501 312.501 -3.32482 330.231 4.94983 402.333C13.2245 474.435 142.073 503.984 116.067 550.082C90.0605 596.18 163.35 790.027 202.359 818.395C241.368 846.763 331.208 800.665 366.67 905.863C402.133 1011.06 670.468 1040.61 798.134 1065.43C925.801 1090.25 1168.13 996.876 1145.67 963.781C1123.21 930.685 1122.03 765.205 1177.59 691.922C1233.14 618.638 1177.59 525.26 1122.03 520.532C1066.47 515.804 955.353 424.791 942.35 278.223C929.347 131.656 854.875 53.6442 798.134 70.1922C741.394 86.7401 465.966 13.4565 412.772 5.18248C359.578 -3.09148 280.378 56.0083 237.822 102.106Z" stroke="#1a1a1a" stroke-width="1.5" fill="none"/>
</g>
<defs>
<filter id="filter0_g_57_161" x="-9.77679e-05" y="-4.76916e-07" width="1205" height="1073.98" filterUnits="userSpaceOnUse" color-interpolation-filters="sRGB">
<feFlood flood-opacity="0" result="BackgroundImageFix"/>
<feBlend mode="normal" in="SourceGraphic" in2="BackgroundImageFix" result="shape"/>
<feTurbulence type="fractalNoise" baseFrequency="0.20000000298023224 0.20000000298023224" numOctaves="3" seed="4508" />
<feDisplacementMap in="shape" scale="7.8000001907348633" xChannelSelector="R" yChannelSelector="G" result="displacedImage" width="100%" height="100%" />
<feMerge result="effect1_texture_57_161">
<feMergeNode in="displacedImage"/>
</feMerge>
</filter>
</defs>
</svg>
