<?xml version="1.0" encoding="UTF-8"?>
<svg id="Calque_1" data-name="Calque 1" xmlns="http://www.w3.org/2000/svg" viewBox="0 0 800 800">
  <path d="M641.7,501.57c-2.46-.81-3.78-.84-5-.81-1.28.11-2.4.19-4.75-.22l.2.39c-1.38.13-2.73.2-4.16.44-1.46.3-2.9.51-4.41,1.04-2.99.84-6.05,2.5-8.06,3.69-2.07,1.21-3.19,1.7-4.25,2.01-.56.12-1.07.28-1.74.34-.57.13-1.34.17-2.08.23-3.03.2-7,.03-10.57-.34l-2.44-.39c-.75-.15-1.37-.36-2.06-.5-1.13-.44-1.91-.73-2.72-1.31-.39-.16-.76-.33-1.27-.59l-1.91-1.14-1.16-.72-1.41-.81c-.91-.55-1.99-1.06-3.06-1.56-4.37-1.99-8.67-2.86-12.57-3.43-1.86-.17-3.82-.43-5.61-.49-1.79-.05-3.59-.17-5.36-.14-3.52.02-7.1.22-10.71.76-3.87.57-7.88,1.6-11.69,2.88-3.83,1.3-7.27,2.92-10.2,4.27-2.94,1.37-5.41,2.49-7.81,3.35-2.41.8-4.75,1.52-7.15,1.93-1.11.31-2.13.19-3.12-.09-.98-.28-1.9-.6-2.88-.94-4.58.26-9.18-.26-13.77-1.73-2.33-.74-4.92-1.85-7.96-3.03-3.02-1.17-6.46-2.39-9.92-3.09.25.07.49.16.65.22-7.22-1.75-12.63-3.52-19.48-3.43.03.36-1.03.34-1.55.54-.15-.2-.9-.29-2.09-.28-1.21.03-2.8.06-4.85.39-1.01.15-2.08.29-3.24.52-1.18.28-2.41.57-3.69.87-1.31.4-2.65.83-4,1.32-1.35.58-2.76,1.1-4.03,1.81-2.68,1.33-4.84,2.87-6.52,3.98-1.71,1.19-2.97,1.93-4.22,2.6-1.25.58-2.36,1.06-3.3,1.28-.9.26-1.53.38-1.79.28-.52.15-1.06.31-1.62.44-5.49.37-12.07-.66-17.2-2.02-2.5-.77-4.71-1.54-6.23-2.47-.81-.47-1.58-.93-2.54-1.53-.56-.33-1.11-.67-1.65-.99-.58-.34-1.39-.78-2.06-1.14-3-.76-6.8-1.59-9.49-1.39-1.12-.74-1.85-.66-2.66-.63-.8.08-1.7.12-3.03-.16-1.56-1.05-3.12-1.87-4.35-2.27-1.24-.42-2.26-.59-2.96-.61-1.41-.02-1.55.61.14,1.32-2.79-.01-5.38.08-7.99,0-2.6.08-5.07-.01-7.48.25-2.2.38-4.39.81-6.63,1.42-1.87.49-3.03.24-4.17-.35-2.47.68-3.37.88-4.33.92-.97.04-2,0-4.66.69-.82-.38-3.93,1.26-6.54,2.97-2.58,1.71-4.71,3.25-5.31,3.26l.56-.38c-4.49,1.39-7.5-.31-11.81-.03-3.04.05-6.38-.08-9.55-.29-3.15-.25-6.04-.7-8.71-1.43-2.68-.73-5.2-1.85-8.69-3.5-3.43-1.64-7.89-3.51-12.16-4.55-.46,1.12,3.86.7,3.54,2.38-4.81-1.68-9.82-2.8-14.55-3.42-4.76-.67-9.51-.74-14.07-.32-1.65-.1-3.75-.44-4.54-.7-2.89.05-1.56.87-3.64,1.08l-.48-1.03c-2.75,1.48-4.6-.33-7.18.75-.04.46-1.01.75-1.97.94-.34-1.13-2.86.78-2.98-.29v.09c-.57.12-.95.29-1.69.26-1.02.67-9.82,6.21-10.64,6.87l-.52-.07c-1.39.37-1.79,1.35-.92,1.36l-1.72.32.18-.12-1.7.31c-.33-.03-.8-.49-.43-1.09-.87.62-1.88,1.04-2.85,1.01,2.72.23,6.28.45,9.41.9-1.08.67-3.34.58-4.55.96-1.68-.4-4.84-.43-7.24-.53-.49.14-.63,1.48-1.87,1.09-.69-.81-1.3.26-2.32-.28,1.01-.59,2.11-.58,3.22-.7-.35-1.04-2.8-.25-3.66-.49-.35.35-2.47.31-3.7.65.31-.68-.24-.73-.87-.82-.13.08-.28.17-.43.26.15-.09.28-.18.42-.27-.33-.05-.67-.11-.93-.28-.84-.06-1.35.35-1.01.71-.05.24.08.4.3.51-.24.12-.48.25-.72.37-1.73.81-3.53,1.58-3.09,1.6.27.1.28.26.21.44-.11.07-.17.16-.15.3-.14.24-.24.46.15.56l.37-.28c1.85.14,1.14,1.57.31,3.04-.87,1.57-1.89,3.19.68,3.38-2.1-1.36.73-1.3,2.93-1.53.23.44,1.25,1.04,2.91,1.29,1.4-.2.79-.56,1.02-.91.8.21,2.32.29,2.2,1,1-.93,1.83.33,3.12-.17,1.11-.56-.13-.34.63-.87,1.75-.15,4.21-.53,5.63-.64.66.55,2.55,1.3,1.56,2.56-2.71.4.69-1.8-2.05-1.05,1.49,1.23-2.38.88-2.69,2.08,1.01.5,2.84.15,4.32-.33l-.34-.13c1.3-.46,3.87-1.35,5.48-.9-.22.59.5.83-.45,1.18l1.84-.34c.19-.22.39-.44-.16-.43.76-.6,1.67-.58,2.41-.44.35.5,9.03-4.65,8.82-4.25.61-.16,1.05-.08,1.46-.04-3.14,1.2-10.08,4.38-8.79,3.91,1.28.3,14.01-6.38,15.09-5.47.95-.27,2.09-.62,1.75-1.12,1.69-.07-.26,1.15,1.01,1.42,0-.09-.15-.25.22-.31l1.25.46c2.36-1.39,6.23-.91,8.73-2.37-.7.71-1.42,1.87-3.01,2.67l-.34-.24c-.21.21-1.56.65-1.42,1.19,1.65.06,2.97-.23,4.57-1,.33.11.71.21.96.33-.02-.07-.05-.13-.05-.21.59.27.53.33.36.58-.02.04-.05.09-.1.14.6.71,2.07.36,3.8-.17,1.73-.52,3.72-.97,5.14-.6.83-.2.08-.28,1.12-.56,1.44.37,2.65.67,3.8,1.08.58.17,1.17.35,1.78.53.59.22,1.21.43,1.89.64,1.02-.54,1.19-.8.21-1.72,0,0,.54.14,1.07.31.52.19,1.04.38,1.04.38-1.18.67-.3,1.36.49,2.02.79.69,1.47,1.43.24,2,.42.6,1.47,1.01,2.66,1.19.3-.37.71-1.09,2.16-.42,1.73,1.46,1.41,1.09,2.89,2.45.19.77-.62.66-.74,1.15,3.27.65,2.01,2.44,5.22,3.64,2.09.68,6.39,1.86,6.74.79,2.83.7,2.69,1.47,2.22,2.27,0,0,.6.19,1.18.3.59.12,1.17.25,1.17.25-3.82-.58-7.94-1.71-11.63-3.37-3.72-1.63-6.77-3.49-9.19-4.76,2.35,2,5.54,4.75,9.91,7.11,4.33,2.36,9.29,3.93,13.87,4.6,2.26.28,4.54.49,6.62.37,1.06-.04,2.1-.1,3.13-.2,1.03-.15,2.04-.32,3.02-.53,3.91-.8,7.71-2.56,10.6-5.04.54.96,2.04,1.54,4.06,1.85,1.98.26,4.51.13,6.76-.25,4.61-.8,7.67-1.94,7.55-2.41,2.16-1.72,3.98-3.02,6.13-4.1,3.36-1.69,7.34-2.8,11.74-3.31,4.37-.48,9.16-.62,13.5-.15.54.05,1.11.09,1.64.16l1.53.27,1.52.27,1.37.38c1.88.51,3.25,1.15,4.79,2.08.37.22.77.46,1.26.79l1.52,1c1.09.73,2.55,1.63,4.09,2.47l2.47,1.24,2.59,1.05c1.73.66,3.45,1.14,5.15,1.6,3.74.91,8.76,1.55,14.16,1.8,5.44.16,11.71.26,18.99-1.22,1.78-.31,3.68-.92,5.47-1.47.89-.33,1.78-.65,2.67-.98.82-.35,1.63-.7,2.44-1.05,3.11-1.43,5.07-2.41,6.49-2.88,1.39-.5,2.57-.65,3.85-.82.56-.11,1.33-.07,1.9-.12.3-.01.59-.03.87-.04.32.01.62.03.91.04l1.98.04c.71.04,1.43.09,2.15.13-2.45-.34-2.36-.27-4.62-.47,1.36-.38,2.67-.83,4.19-1.09,1.46-.33,2.92-.61,4.38-.79.73-.1,1.46-.21,2.18-.31.7-.06,1.39-.11,2.08-.17,1.41-.15,2.7-.12,4.02-.12-.83-.7-.85-1.36-3.06-2.41.04-.05,2.71.74,2.71.74.69-.35,1.57-.54,2.52-.57.96-.06,2.03-.02,3.08.15,2.11.24,4.24.88,5.76,1.08-.92.6,1.14,1.61,3.19,2.62l-.6-.9c3.76,1.81,8.94,3.84,14.19,4.8,5.26,1.02,10.26,1.11,14.5,1.22,1.19-.03,2.09.28,2.64.58,0,0,2.04-.18,4.13-.59,2.07-.32,4.13-.84,4.13-.84-.24.64,1.56.67,2.93.6,1.37-.09,2.33-.14.37.68,3.07-1.35,6.15-2.39,8.99-3.56,2.79-1.16,5.38-2.39,7.39-3.96,4.14-1.68,7.91-2.91,12.07-3.72,4.1-.85,8.61-1.22,13.08-1.37,4.48-.16,8.77.02,12.18,1,1.7.51,3.28,1.32,5.57,2.64,2.26,1.32,5.24,2.69,8.1,3.32l-.4-.59c4.02.96,7.57.42,11.11.07,1.77-.26,3.56-.4,5.43-.62.94-.1,1.9-.13,2.89-.19,1-.09,2.04-.14,3.12-.15,2.95-1.21,6.47-2.73,8.85-4.9,2.35-2.13,3.86-4.46,4.37-6.18,3.11-2.15,5.69-3.36,8.18-4.45,2.5-.95,5.06-1.82,8.64-2.29-.95-.6.77-1.03,2.32-1.41,1.6-.4,2.71-.67,1.1-1.16ZM181.99,513.53c-.51-.04-.37-.32.07-.72.11.28.1.55-.07.72ZM184.94,510.63c.13-.1.25-.19.36-.27-.5-.38-2-.08-2.8-.08,0,.43.3.49.28.68-.26.16-.63.27-1,.38-.12.02-.24.04-.36.06l-.22-.08c-.26.1-.54.15-.8.2-.19-.02-.36-.1-.5-.25.19-.16.6-.06.9-.04-.64-.05,1.08-.95,2.7-1.91.73.31,2.22.25,2.12.8.09-.07.17-.13.22-.18l.55.2c-.3.2-.86.39-1.45.5Z"/>
  <path d="M185.62,510.11c-.09.07-.2.15-.32.24.04.03.09.06.12.1.13-.14.18-.25.2-.34Z"/>
  <path d="M185.99,507.48c.08.08-.08.27-.4.5.58-.39.83-.62.4-.5Z"/>
  <path d="M185.59,507.99c-.15.1-.33.22-.52.34,0,0,.01,0,.02,0,.2-.13.36-.24.5-.35Z"/>
  <path d="M600.39,556.77c-3.27-1.85-3.59-.32-6-2.01l.02.42c-.78-.15-1.35-.45-2-.66-.68-.2-1.17-.5-1.69-.75-1.04-.52-1.69-1.06-2.61-1.83-.82-.68-2.32-2.06-4.37-3.52-.54-.37-1.06-.74-1.63-1.1l-1.82-1.04c-1.22-.71-2.5-1.18-3.77-1.74-5.12-1.96-9.68-2.55-14.06-3.01-2.15-.16-4.32-.36-6.45-.35l-3.22-.04-3.3.15c-5.79,1.03-12.2,2.39-18.04,4.42-2.88,1-5.54,2.03-7.89,2.93-2.31.85-4.39,1.66-6.32,2.24-4.11,1.45-8.74,2.18-13.66,2.52-4.91.35-9.16.16-13.04-.5-1.92-.22-2.9-1.73-4.33-2.93-3.81-1.26-9.37-3.73-15.48-5.15-6.1-1.4-12.34-1.89-17.86-1.55.21,0,.41.04.55.06-1.48-.01-2.88.01-4.24-.04-1.36-.05-2.64-.18-4.03-.16-2.7-.07-5.53-.01-8.79.83.11.34-.9.61-1.34.91-.34-.34-3.06.3-6.5,2.06-1.73.86-3.46,1.97-5,3.02-.68.47-1.38.96-2.09,1.45-.62.41-1.28.9-1.88,1.24-2.4,1.52-5.33,2.62-7.93,3.27-2.63.57-4.61.87-5.06.6-.49.09-1.01.17-1.54.23-5.04-.26-10.39-1.47-13.92-3.23-1.87-.85-2.97-1.76-4.55-2.88-1.53-1.11-3.98-2.81-6.97-4.11-2.91-.43-6.07-.75-8.34-.35-1.84-1.11-2.55.05-4.79-.43-2.73-2.13-4.99-2.69-6.19-2.72-1.2,0-1.33.62.11,1.32-4.67.13-9.13-.12-13.16.12-1.86.3-3.74.74-5.6,1.15-1.59.43-2.56.09-3.5-.59-2.08.48-2.85.58-3.67.53-.82,0-1.68-.24-3.99.18-.34-.21-1.21-.03-2.32.38-1.1.42-2.43,1.13-3.73,1.85-2.56,1.51-4.76,3.15-5.38,3.22l.57-.42c-4.57,1.69-7.59.56-10.88,1.29-2.33.38-4.81.6-7.47.76-1.32.09-2.74.06-4.11.12-1.38-.02-2.77-.04-4.14-.06-2.66-.17-5.23-.37-7.47-.92-2.3-.49-4.27-1.2-6.46-2.28-.56,1.08,2.02.58,1.5,2.07-2.48-1.04-5.02-2.87-8.58-4.91-3.52-2.05-7.98-3.91-12.31-4.69-1.54-.65-3.35-1.4-4.04-1.86-2.76-.72-1.69.42-3.63.18l-.22-1.11c-2.93.78-4.16-1.29-6.73-.78-.12.45-1.04.51-2,.55-.12-1.16-2.91.27-2.85-.8l-.02.09c-.57.01-1.01.16-1.75.04-.28.13-1.11.51-2.24,1.02-1.14.55-2.56,1.24-3.94,1.99-2.81,1.52-5.31,3.3-5.71,3.7l-.54-.02c-1.45.51-1.58,1.51-.8,1.44l-1.6.5.16-.14-1.46.46c-.29,0-.77-.41-.54-1.04-.69.69-1.32,1.12-2.1,1.17,1.99.13,5.29-.09,8.54.12-.5.38-1.32.59-2.14.77-.77.18-1.59.34-2.11.6-1.58-.24-4.11-.04-5.8-.15-.32.15-.26,1.47-1.21,1.11-.58-.8-.93.2-1.73-.31.69-.62,1.49-.52,2.26-.68-.37-.97-2.01-.31-2.67-.49-.24.37-1.82.24-2.82.62.24-.68-.22-.73-.74-.81-.12.1-.26.2-.41.3.14-.11.27-.21.39-.31-.27-.05-.56-.1-.78-.28-.68-.06-1.14.35-.83.7-.04.24.08.4.27.52-.2.13-.41.25-.62.38-1.54.86-3.1,1.68-2.72,1.68.24.1.26.26.2.43-.1.07-.15.17-.12.31-.11.24-.19.47.15.56l.31-.29c1.64.09,1.05,1.54.38,3.03-.71,1.59-1.52,3.24.69,3.36-1.86-1.29.6-1.34,2.47-1.58.2.44,1.08,1.03,2.49,1.28,1.17-.23.64-.56.83-.92.67.21,1.95.31,1.89,1.01.79-.95,1.55.26,2.61-.22.88-.59-.14-.33.45-.88,1.43-.24,3.43-.68,4.6-.94.63.47,2.38,1.09,1.72,2.39-2.26.62.3-1.84-1.91-.86,1.45,1.1-1.91,1.03-2.05,2.21.93.44,2.51-.01,3.7-.63l-.32-.1c1.06-.55,3.1-1.65,4.52-1.3-.1.59.53.78-.2,1.18l1.48-.41c.13-.22.26-.44-.19-.42.55-.6,1.31-.64,1.92-.48.16.23,1.88-.87,3.69-1.87,1.82-.97,3.71-1.84,3.61-1.63.53-.06.89.07,1.23.16-.98.25-2.38.69-3.68,1.21-2.35.9-4.33,2.06-3.68,1.78.52.16,3.26-1.25,6.29-2.23,3-1.02,6.16-1.67,6.52-1.14.83-.06,1.84-.2,1.64-.75,1.42.24-.41,1.08.59,1.58.02-.09-.08-.28.24-.27l.94.73c2.19-.84,5.22.47,7.56-.28-.73.47-1.6,1.43-3.04,1.86l-.21-.32c-.21.15-1.37.23-1.37.79,1.26.52,2.36.47,3.79.13.22.19.49.39.65.58,0-.07,0-.14.02-.22.37.42.31.47.12.65-.03.04-.06.08-.11.11.25.88,1.47.79,2.9.83.72-.02,1.5,0,2.22.14.72.12,1.38.33,1.85.77.73.04.16-.24,1.08-.2,2.03,1.55,3.3,2.77,5.8,4.34,1.13-.25,1.3-.49.61-1.62,0,0,.47.28.94.55.49.27.97.54.97.54-1.31.46-.53,1.29.26,2.11.8.81,1.67,1.59.19,2.05.52.63,1.84,1.3,3.28,1.38.28-.41.71-1.07,2.33-.59,2.14,1.18,1.64.8,3.45,1.84.34.71-.42.79-.44,1.29,3.16-.26,2.45,1.81,5.36,2.04.9,0,2.24.04,3.36-.04,1.12-.09,1.99-.39,2.05-.92,2.31.11,2.3.9,2.05,1.77,0,0,.48.04.96.08.48.05.96.06.96.06-6.1.06-12.93-.72-19.59-3.19,3.38,1.95,7.24,3.57,11.03,4.58.95.26,1.92.51,2.88.73.94.18,1.88.34,2.82.48,1.89.32,3.78.44,5.65.45,3.72.08,7.62-.58,11.08-1.93,3.48-1.45,6.53-3.6,8.39-6.41,1.28,1.79,5.46,1.75,8.52,1.41.73-.06,1.44-.16,2.1-.28.61-.08,1.14-.17,1.59-.29.92-.25,1.43-.44,1.4-.72.77-.66,1.58-1.27,2.44-1.78.84-.57,1.76-1.04,2.73-1.47,1.47-.75,3.2-1.2,4.88-1.72,1.79-.36,3.55-.78,5.47-.95,1.9-.17,3.84-.38,5.77-.34.97,0,1.94.02,2.92.03.97.03,1.87.14,2.81.22,3.73.37,7.11,1.18,9.5,2.52.61.3,1.26.73,1.91,1.15l2.51,1.71c.9.64,2.24,1.45,3.49,2.18,1.4.73,2.8,1.5,4.31,2.08,1.68.74,3.65,1.3,5.92,1.93,2.14.46,4.62.99,7.01,1.23,4.93.63,9.96.86,15.48.75,1.41-.07,2.76-.07,4.21-.21,1.47-.16,2.9-.28,4.37-.49,1.51-.28,2.98-.5,4.46-.87,1.48-.41,2.97-.73,4.34-1.25,1.41-.47,2.73-.96,3.87-1.46,1.25-.51,2.15-.92,3.07-1.32.77-.32,1.51-.63,2.19-.92.59-.22,1.02-.34,1.46-.48.92-.25,1.68-.42,2.47-.53-.67.02-1.03.02-1.39.1-.39.09-.65.02-1.55.29,1.62-1.41,2.84-2.34,4.66-3.27,1.87-.83,4.01-1.53,6.32-1.98-.88-.59-1.02-1.14-3.01-1.79,0,0,.59.05,1.19.09.58.04,1.19.11,1.19.11,2.14-1.82,7.57-1.79,10.05-2.22-.61.89,1.34,1.13,2.93,1.53l-.57-.69c3.14.57,6.34,1.16,9.5,2.08,3.15.9,6.45,2.23,9.73,3.6.92.36,1.46.96,1.82,1.4l1.09.27c.66.16,1.51.4,2.43.56.9.18,1.8.35,2.48.48.69.1,1.14.16,1.14.16-.42.52,1.01,1.13,2.12,1.59,1.11.42,1.88.69.05.77,5.79-.31,11.06.73,16.02-.88,4.4-.14,9.05-.74,13.59-2,4.55-1.22,8.83-3.11,12.54-4.87,3.71-1.76,7.05-3.29,10.61-4.48,3.53-1.24,7.3-2.02,11.16-2.72l-.4-.44c1.36-.23,2.7-.58,4.04-.92,1.34-.29,2.7-.6,4.1-.86,1.39-.21,2.83-.32,4.33-.29,1.47.13,3.05.33,4.55,1,4.95-.71,11.65,3.83,14.32,2.07,2.33.94,4.1,1.03,5.94.89.9-.04,1.79-.12,2.83-.27,1.02-.1,2.13-.22,3.43-.35-.65-.64.64-.99,1.73-1.29,1.05-.29,2.21-.64.78-1.11ZM208.73,553.5c-.45-.02-.33-.31.04-.72.1.28.1.55-.04.72ZM211.19,550.57c.11-.1.21-.19.3-.27-.43-.38-1.62-.1-2.38-.06,0,.43.28.48.27.67-.23.17-.55.29-.88.4-.11.02-.21.05-.32.07l-.2-.08c-.23.1-.48.16-.71.22-.17-.02-.32-.09-.45-.24.17-.17.53-.07.8-.06-.58-.02.95-1,2.35-1.97.62.31,1.85.24,1.78.8.08-.07.14-.14.18-.18l.46.2c-.25.2-.71.4-1.19.5Z"/>
  <path d="M211.98,547.43c.07.08-.06.27-.32.5.47-.39.67-.62.32-.5Z"/>
  <path d="M211.66,547.93c-.12.1-.26.22-.42.34,0,0,.01,0,.02,0,.16-.13.29-.24.41-.35Z"/>
  <path d="M211.74,550.06c-.07.07-.16.15-.26.24.04.03.08.06.1.1.1-.14.14-.25.16-.34Z"/>
  <path d="M254.32,587.77c-.1.06-.21.13-.34.2.04.04.08.07.1.12.14-.12.21-.23.24-.32Z"/>
  <path d="M255.07,585.23c.06.1-.12.24-.45.42.62-.29.91-.45.45-.42Z"/>
  <path d="M254.62,585.65c-.18.08-.38.18-.6.28,0,0,.02,0,.02,0,.23-.11.41-.2.58-.29Z"/>
  <path d="M558.26,590.23c-3.26-1.65-3.38-.22-6.23-1.46l.11.41c-6.51-.58-13.72.04-20.33,1.76-3.27.85-6.23,1.81-8.86,2.6-2.63.81-4.85,1.32-7.11,1.75-2.79,1.26-6.03,1.69-9.54,1.73-1.75.08-3.49-.07-5.23-.12-1.67-.16-3.35-.26-4.89-.47-3.42-.33-6.57-.99-10.64-2.28-4.03-1.28-9.02-2.85-13.49-3.47-2.14-.26-3.42-1.49-5.14-2.47-4.13-.39-8.73-.85-13.26-.82-2.28-.09-4.62.12-6.92.21-2.4.27-4.71.49-7.11,1.11.18-.02.36-.03.47-.03-2.48.46-4.85.75-7.21,1.2-1.18.26-2.4.48-3.55.9-.58.2-1.17.41-1.77.65-.56.24-1.09.52-1.64.82.18.31-.51.67-.74,1-.3-.31-2.03.62-3.64,1.73-1.62,1.09-3.27,2.28-5.37,3.33-4.25,2.06-10.14,3.28-10.79,2.78-.39.09-.79.17-1.21.22-1.99-.1-3.98-.59-5.94-1.01-1.84-.57-3.72-1.13-5.22-1.87-.82-.31-1.49-.7-2.13-1.06-.68-.32-1.22-.72-1.76-1.04-.55-.28-1.04-.72-1.57-.98-.29-.18-.59-.37-.89-.53-.34-.18-.68-.36-1.01-.53-.83-.02-1.69-.09-2.76-.25-.51-.06-.98-.11-1.48-.15-.53-.04-1.04-.07-1.52-.06-1.16-1.39-2.08-.23-3.86-1.17-1.83-2.42-3.84-3.49-4.84-3.59-1.05-.15-1.25.46-.14,1.31-1.01-.1-2.03-.28-3-.42-.95-.1-1.89-.23-2.82-.36-1.88-.31-3.55-.38-5.2-.48-1.55.1-2.98.36-4.47.61-1.25.25-1.94-.26-2.57-1.06-3.21.5-2.26-.31-5.65-.58-.41-.61-2.58.02-4.7.74-2.11.66-4.26,1.72-4.76,1.57l.54-.24c-3.98.3-7.22-1.3-11.37-.27-2.85.64-5.81,1.58-8.28,2.58-1.32.51-2.4.97-3.55,1.44-1.04.42-2.11.88-3.03,1.2-1.9.75-3.65,1.21-5.46,1.63-.94.14-1.86.28-2.77.42-.96.05-1.91.1-2.84.15.01,1.22,1.61-.42,1.85,1.18-4.45.2-9.5-1.32-13.62-2.04-.7-.45-1.5-1.19-1.75-1.62-1.16-.65-.83.42-1.7.08l.13-1.1c-1.51.62-1.44-1.66-2.67-1.53-.2.4-.63.29-1.02.11.41-1.09-1.27-.39-.84-1.38l-.05.08c-.25-.13-.47-.14-.7-.46-.3.11-2.02.31-4.1.34-2.02.04-4.49-.04-4.92.04l-.3-.33c-1.16-.43-1.96.18-1.38.64l-1.36-.61h.19s-.33-.17-.7-.3c-.36-.14-.72-.28-.72-.28-.23-.19-.38-.81.21-1.15-.99.11-1.97-.03-2.79-.44,1.11.66,2.26,1.55,3.39,2.44,1.03.95,2.12,1.94,2.87,2.93-.95-.01-2.41-1.23-3.43-1.5-.48-.57-1.32-1.23-2.28-1.89-.97-.65-2.1-1.21-3.1-1.74-.49-.06-1.07,1.14-1.98.41-.34-.97-1.17-.17-1.94-.96,1.08-.3,2.03.08,3.04.31.05-1.07-2.36-1.15-3.14-1.58-.44.24-2.33-.27-3.59-.11.41-.62-.12-.76-.72-.94-.19.09-.39.18-.61.28.2-.1.4-.2.59-.28-.32-.09-.65-.2-.88-.39-.8-.15-1.34.24-1.03.61-.07.24.05.41.25.54-.24.11-.47.22-.71.33-1.71.78-3.29,1.51-2.89,1.54.24.11.26.27.2.44-.1.07-.16.16-.13.31-.11.23-.18.45.15.56l.32-.27c1.63.18.94,1.59.3,3.04-.69,1.55-1.31,3.16.5,3.39-1.52-1.37.54-1.34,2.2-1.44.14.44.82,1.12,1.95,1.6,1.01,0,.64-.42.87-.74.54.35,1.57.71,1.34,1.38.9-.7,1.16.73,2.12.61.89-.23,0-.36.67-.65,1.22.3,2.9.9,3.81,1.31.19.75.89,2.2-.19,2.9-1.66-.69,1.15-1.37-.72-1.72.38,1.63-1.73-.02-2.32.99.41.82,1.53,1.05,2.52,1.19l-.13-.25c.87.08,2.66.34,3.23,1.46-.4.4-.17.92-.8.81l1.05.52c.2-.1.41-.2.14-.43.67-.18,1.11.29,1.38.74-.17.49,6.92.69,6.61.89.4.16.58.44.77.67-2.22-.55-7.41-1.44-6.48-1.17.21.42,2.76.89,5.36,1.37,2.6.47,5.16.74,5.26,1.31.66.16,1.47.28,1.48-.31,1.01.59-.63.93,0,1.67.04-.08.01-.29.26-.19l.58.9c1-.22,2.06.09,3.15.37,1.1.21,2.23.37,3.22-.05-.61.52-1.38,1.48-2.71,1.83l-.16-.32c-.2.16-1.25.14-1.34.69,1.11.63,2.17.64,3.49.3.21.18.46.38.62.56,0-.07,0-.14,0-.22.36.41.32.46.14.65-.02.04-.05.08-.1.11.59,1.7,4.79-.54,6.83.28.64-.21.07-.28.86-.57,2.17.75,3.7,1.12,6.04,1.46.71-.73.73-1.01-.18-1.72,0,0,.43.06.87.08l.88.04c-1.49,2.02,3.47,1.5,1.86,3.53.58.37,1.69.41,2.71-.09.04-.49.1-1.26,1.39-1.46,1.91.34,1.44.19,3.07.44.49.52-.01.89.15,1.35,2.2-1.32,2.42.86,4.66.06,1.41-.56,3.97-1.62,3.66-2.64,1.73-.6,1.98.12,2.15,1.01l1.41-.44c-4.22,1.88-10.02,3.36-15.3,3.64,1.5.25,3.06.44,4.68.47,1.63.1,3.26.02,4.91-.12,3.23-.29,6.39-1.04,8.68-1.85,1.26-.45,2.17-.83,3.14-1.37.88-.46,1.68-1.03,2.42-1.66,1.43-1.26,2.68-2.88,3.79-5.15.39.98,1.19,1.75,2.12,2.34.92.57,2,.99,3.08,1.32,2.07.57,4.12.7,4.17.18,1.57-.91,3.31-1.58,5.1-2.12,5.62-1.71,11.94-1.91,16.67-.59,1.11.37,2.18.78,3.14,1.33.5.27,1.02.63,1.54.95l1.93,1.33c.76.52,1.5,1.05,2.51,1.66.9.6,1.96,1.18,3.07,1.76,2.17,1.14,4.56,2.11,6.81,2.81,2.56.84,6.05,1.53,9.85,2.01,3.77.46,7.85.7,12.06.78,4.3-.03,8.78-.16,13.23-1.02,4.36-.76,8.52-2.16,10.91-3.06l1.99-.77,1.73-.7c-.81.22-1.53.49-2.02.64-.58.19-1.17.38-2.34.76,2.67-1.9,4.46-3.61,5.57-4.66,1.22-1.12,2.2-1.98,3.53-2.68-.67-.47-.89-1.01-2.33-1.38,0,0,1.55-.13,1.58-.08.86-2.08,4.68-2.62,6.56-3.43-.32.95,1.12.95,2.5,1.09l-.56-.58c5.15.13,11.3-.3,15.54.68.6.12.97.55,1.17.91,0,0,1.05.01,2.09.15.52.05,1.05.1,1.44.14.4.04.66.1.66.1-.66,1.06,2.93,2.1.81,2.2,3.41-.35,6.39,1.99,10.55,2.03,3.22,1.21,6.85,2.25,10.54,2.85,3.68.49,7.4.76,10.96.53,3.59-.12,7.14-.61,10.7-1.36,3.54-.83,7.06-1.92,10.26-3.48l-.46-.34c4.5-2.16,7.24-6.08,12.61-7.19,1.54-1.42,3.58-2.72,5.44-3.94,1.84-1.24,3.5-2.36,4.09-3.79,2.32-.5,3.93-1.18,5.55-1.72,1.62-.59,3.25-1.2,5.6-1.55-1.23-1.23,4.54-1.6,2.26-2.54ZM250.84,590.9c-.43-.04-.31-.33.08-.72.09.28.07.56-.08.72ZM253.62,588.19c.13-.08.25-.15.36-.22-.42-.45-1.79-.33-2.55-.31-.02.43.25.49.22.69-.25.16-.59.26-.93.36-.11.02-.22.04-.33.06l-.2-.09c-.23.09-.49.13-.72.18-.17-.03-.33-.1-.45-.26.17-.16.55-.05.81-.02-.58-.05.97-.96,2.6-1.83.26.15.64.25.99.35.53.17.99.36.9.67.09-.06.17-.1.22-.14l.48.28c-.32.15-.86.27-1.41.28Z"/>
  <path d="M299.52,640.53c-.07.1-.16.22-.26.35,0,0,0,0,0,0,.1-.13.18-.24.25-.35Z"/>
  <path d="M299.68,640.07c.04.09-.02.25-.16.46.25-.35.36-.56.16-.46Z"/>
  <path d="M299.52,642.7c-.04.06-.08.13-.13.21.02.03.04.06.05.1.05-.12.07-.22.08-.31Z"/>
  <path d="M504.39,645.43c-1.74-1.8-1.87-.32-3.29-1.77l.02.42c-3.35-1.14-6.33-2.3-9.07-3.68-2.76-1.35-5.53-3.01-9.41-4.94-5.59-1.3-12.66-4.29-19.19-4.72-7.13-.43-14.07.43-19.95,2.01-1.35.45-2.53-.41-3.9-.78-2.78.66-6.25,1.61-9.61,2.94-3.44,1.38-6.32,3.18-8.11,4.46.08-.04.17-.06.23-.07-2.11,1.28-3.78.66-5.53,1.37.11.34-.16.45-.25.68-.19-.37-.95-.21-2.02.28-.51.27-1.25.49-1.97.82-.72.33-1.53.67-2.41.96-.87.31-1.75.62-2.58.92-.89.23-1.72.45-2.45.64-1.47.37-2.55.52-2.77.26-.26.07-.53.14-.81.17-2.68-.4-5.28-1.56-7.4-2.73-2.19-1.14-3.63-2.36-5.06-2.69-.89.42-1.87.81-2.94,1.21-.29-.96-.99.26-1.8-.43-.2-2.03-1.14-3.1-1.72-3.33-.6-.24-.94.3-.53,1.2-2.48-.84-5.11-2.37-7.56-2.97-1.19-.12-2.36-.23-3.5-.15-.98.07-1.38-.52-1.7-1.4-2.45.02-1.58-.61-4-1.32-.57-1.36-6.09,1.33-6.69.92l.38-.15c-2.59-.28-4.29-2.59-6.9-2.69-7.11-.87-15.29.65-22.52,2.11.22,1.2,1.51-.66,1.95.89-4.13.7-8.9.76-12.65,2.09-.81-.02-1.82-.27-2.22-.52-1.24.02-.4.8-1.24.98l-.53-.97c-.72,1.27-1.93-.54-2.69.26.12.43-.17.59-.48.66-.41-1.09-.88.4-1.18-.62l.02.09c-.18.04-.29.17-.55.04-.09.24-.61,1.33-1.23,2.47-.62,1.08-1.33,2.18-1.46,2.47l-.2-.15c-.48.15-.56,1.01-.21,1.18l-.66.03.06-.09-.65.03c-.14-.08-.35-.6-.25-1.13-.29.46-.67.74-1.05.59,1.07.52,2.53,1.43,3.84,2.29-.35.51-1.29.05-1.77.24-.74-.69-1.96-1.08-2.99-1.57-.2.08-.22,1.39-.76.86-.31-.88-.54.08-.99-.53.42-.52.87-.34,1.34-.34-.18-1.05-1.17-.62-1.55-.88-.13.36-1.04.07-1.62.36.13-.67-.12-.74-.4-.85-.08.1-.16.2-.25.3.08-.11.16-.21.24-.3-.15-.06-.31-.14-.43-.32-.38-.11-.62.3-.46.66-.02.24.05.4.15.52-.9.98-1.97,2.02-1.77,2.04.13.1.13.26.11.43-.05.07-.08.17-.07.31-.06.24-.1.47.08.56l.15-.27c.86.11.56,1.53.21,3.01-.37,1.58-.8,3.22.37,3.37-.98-1.29.31-1.36,1.3-1.54.11.45.58,1.09,1.33,1.41.63-.12.35-.49.45-.83.36.3,1.04.49,1,1.19.43-.87.82.46,1.4.12.49-.43-.07-.35.27-.78.78.03,1.88.07,2.52.1.32.61,1.24,1.63.84,2.72-1.24.05.23-1.7-1-1.29.74,1.41-1.06.56-1.17,1.67.48.64,1.33.56,2,.25l-.17-.17c.59-.29,1.75-.78,2.56-.11-.06.54.31.88-.13,1.08,0,0,.22,0,.44-.02.22,0,.44-.04.44-.04.08-.19.16-.38-.11-.44.32-.49.77-.36,1.14-.13.1.25,1.14-.55,2.05-1.43.91-.9,1.73-1.81,1.72-1.62.27-.09.5.03.71.1-.47.31-1.14.8-1.81,1.28-1.18.92-2.37,1.66-1.97,1.5.34.26,1.93-.86,3.38-1.99,1.45-1.14,2.8-2.27,3.16-1.86.4-.21.86-.52.55-1,.8-.03.19,1.08.88,1.37-.02-.09-.15-.24.02-.29l.75.46c.77-1.24,2.77-.88,3.45-2.39-.1.7-.04,1.82-.56,2.64l-.24-.22c-.04.2-.56.63-.33,1.14.83.06,1.4-.3,1.88-1.09.19.09.4.16.56.27-.03-.07-.06-.12-.09-.2.36.23.36.29.36.53,0,.04,0,.09,0,.14,1.03,1.33,2.22-2,3.71-1.63.28-.35-.06-.28.28-.72,1.45.25,2.4.39,3.78.46.22-.79.2-1.07-.5-1.66l1.05-.03c-.41,2.05,2.21,1.29,1.68,3.37.36.34.94.32,1.4-.07-.04-.47-.11-1.24.57-1.36,1.05.44.79.26,1.66.71.28.57.04.87.15,1.35,1.08-.95,1.24,1.19,2.33.93.67-.27,2.04-.53,1.99-1.58,1-.02,1.06.77,1.03,1.65l.8.07c-1.28.11-2.58.15-3.84.2-.64.01-1.29,0-1.95-.01l-1.9.04c6.03,2.55,12.27,5.65,17.02-2.1.22,2.09,1.73,3.64,3.13,4.55,1.32.99,2.59,1.3,2.7.8,1.19-.71,2.19-1.13,3.32-1.51.92-.31,1.69-.44,2.51-.54.86-.13,1.58-.08,2.33,0,1.52.18,2.72.63,4.43,1.69,1.67.98,3.96,2.72,6.92,4.26,1.41.78,2.95,1.45,4.44,2.1,1.46.53,3.05,1.21,4.48,1.6,3.38,1.09,9.1,1.9,14.65,2.38,5.49.49,11.57.41,15.22.35,1.07-.07,2.16-.18,3.26-.31-1.85.03-1.88.07-3.66.03,4.11-1.9,7.86-4.18,11.02-6.42-.81-.27-1.21-.75-2.95-.93l1.92-.35c.84-2.26,4.05-3.85,4.77-5.07.15.95,1.25.55,2.01.34l-.56-.39c1.56-.59,2.86-1.22,4.28-1.79,1.41-.55,2.89-1.05,4.32-1.18.39-.06.73.22.94.5-.05-.04,2.74-.96,2.74-.96-.06.61.54.83.99,1,.47.19.79.34.12.74,2.13-1.48,4.38-.71,6.55-2.08,3.85-.01,7.68.09,11.49.44,3.83.32,7.68.97,12.11,1.78l-.03-.5c3.14.45,6.58-.67,9.97,1.16,1.53-.34,3.29-.63,4.79-1.02,1.52-.48,2.81-1.14,3.46-2.31,2.92-.02,4.15-1.18,6.94-1.78-.71-1.26,2.73-1.45,1.33-2.44ZM297.9,646.01c-.22-.02-.17-.31.02-.72.05.28.05.55-.02.72ZM299.23,643.16c.06-.09.11-.17.16-.25-.23-.39-.91-.22-1.29-.16,0,.41.13.47.14.65-.12.18-.29.31-.47.43-.05.02-.11.04-.16.07l-.1-.08c-.12.1-.25.16-.37.21-.09-.02-.17-.09-.24-.24.09-.17.28-.07.42-.06-.27-.02.49-1.01,1.24-1.95.34.35,1.03.36.97.93.05-.08.09-.14.11-.19l.25.22c-.14.18-.39.36-.66.43Z"/>
  <path d="M197.08,327.46l-68.04-47.18-10.29,20.03,12.9,8.29c10.34,6.72,22.3,14.18,35.86,22.38-14.42-6.16-32.3-13.24-53.6-21.25l-10.29,20.03,78.64,26.55,14.82-28.83Z"/>
  <polygon points="228.06 287.63 166.1 233.79 152.11 249.91 214.07 303.73 228.06 287.63"/>
  <polygon points="258.58 260.81 237.09 230.3 267.66 254.41 282.95 243.64 235.68 176.54 221.1 186.82 242.37 217.03 211.31 193.7 196.73 203.98 243.98 271.09 258.58 260.81"/>
  <path d="M312.83,230.53l18.69-6.43-9.65-28.09-2.3-54.58-18.54,6.37c1.53,13.01,3.17,23.85,4.89,32.52-2.16-5.12-7.31-14.76-15.41-28.91l-18.54,6.37,31.21,44.66,9.66,28.09Z"/>
  <polygon points="398.57 213.73 397.25 197.36 384.31 198.41 379.01 132.97 357.74 134.69 364.36 216.5 398.57 213.73"/>
  <path d="M520.54,203.95c2.67,1.21,4.11,2.44,4.3,3.69.2,1.24-.62,3.86-2.44,7.86l-11.29,24.83,18.05,8.2,8.97-19.69c2.73-6.04,4.26-9.8,4.54-11.28.28-1.48.12-3.33-.47-5.53-.59-2.2-2.6-4.65-6.01-7.35,4.43,1.52,7.82,1.62,10.18.27,2.35-1.34,4.85-4.91,7.5-10.72,2.89-6.37,3.98-11.48,3.27-15.31-.73-3.83-2.55-6.85-5.48-9.03-2.92-2.19-8.97-5.36-18.13-9.54l-13.76-6.25-33.98,74.72,19.43,8.83,15.33-33.68ZM533.38,175.71c2.24,1.01,3.62,2.09,4.13,3.22.51,1.11.22,2.87-.85,5.23l-1.87,4.11c-1.5,3.29-2.82,5.03-3.97,5.24-1.15.2-2.81-.2-5-1.2l7.56-16.6Z"/>
  <path d="M558.15,267.28c1.91,3.61,4.77,6.96,8.58,10.03,3.45,2.78,6.88,4.65,10.28,5.63,3.39.99,6.7,1.06,9.92.25,3.22-.82,5.78-2.08,7.67-3.79,1.89-1.71,4.79-4.99,8.68-9.82l34.4-42.74-16.63-13.37-37.93,47.11c-2.56,3.19-4.34,5.08-5.33,5.7-.99.61-2.02.49-3.07-.36-.93-.74-1.22-1.62-.9-2.65.32-1.01,1.61-2.92,3.86-5.72l38.58-47.93-16.63-13.38-30.44,37.83c-5.81,7.21-9.49,12.05-11.03,14.52-1.56,2.46-2.42,5.28-2.6,8.47-.19,3.2.67,6.61,2.57,10.22Z"/>
  <polygon points="612.33 321.66 642.62 299.89 618.81 330.68 629.72 345.87 696.37 297.97 685.96 283.47 655.95 305.04 678.98 273.76 668.56 259.26 601.91 307.17 612.33 321.66"/>
  <path d="M141.55,458.39c.07.11-.16.21-.59.3.83-.13,1.19-.23.59-.3Z"/>
  <path d="M687.59,471.57c-.48-.41-.9-.72-1.3-1-.8-.56-1.47-.88-2.12-1.22-1.31-.63-2.51-1.16-4.55-2.75l-.02.45c-10.39-5.18-21.78-8.47-33.67-9.58l-4.48-.31-4.61-.06c-1.32.04-2.66.13-4.01.22-5.71-118.12-103.28-212.13-222.81-212.13s-221.12,97.95-223.03,219.5c-.46-.11-.96-.16-1.52-.09-.17.43-1.17.41-2.13.3.09-1.13-3.03-.21-2.78-1.27l-.04.08c-.6-.09-1.03-.06-1.74-.34-.58.15-3.71.63-6.94,1.03-3.22.41-6.53.71-7.19.84l-.53-.3c-1.69-.28-2.59.4-1.64.81l-2.08-.49.26-.03-2.07-.49c-.36-.18-.68-.81.01-1.18-1.26.14-2.63.07-3.77-.39,3.12,1.42,6.99,3.29,10.23,5.07-1.49.14-3.94-.98-5.5-1.18-1.68-1.12-5.31-2.57-8.11-3.77-.66-.08-1.4,1.09-2.73.18-.5-1.05-1.66-.36-2.71-1.29,1.51-.13,2.81.42,4.21.78,0-1.08-3.26-1.52-4.31-2.07-.6.2-3.23-.81-5-.96.65-.52-.07-.78-.88-1.12-.24.03-.5.06-.77.08.26-.03.51-.06.74-.09-.43-.18-.88-.38-1.17-.64-1.11-.42-1.94-.22-1.57.25-.14.21,0,.42.26.62-2.95.2-6.32.33-5.63.52.31.19.29.35.17.5-.17.03-.27.1-.27.25-.22.19-.39.37.06.6l.54-.14c4.95,1.65-6.07,4.63-.31,6.56-2.2-1.98,1.21-1.06,3.94-.51.14.51,1.18,1.45,3.03,2.28,1.71.33,1.11-.22,1.51-.46.86.52,2.58,1.21,2.18,1.82,1.51-.48,1.98,1.02,3.63,1.13,1.48-.04-.01-.37,1.07-.52,2.07.57,4.98,1.36,6.61,1.87.5.78,2.24,2.34.59,3.01-3.17-.83,1.56-1.34-1.81-1.85,1.11,1.77-3.03-.25-3.88.7.91.9,3.06,1.4,4.91,1.6l-.32-.27c1.63.17,4.87.51,6.44,1.64-.51.43.17.97-1.03.86l2.19.54c.31-.11.63-.22.02-.46,1.12-.2,2.12.21,2.86.67.07.31,3.12.26,6.09.13,2.97-.15,5.85-.4,5.65-.25.76.09,1.22.32,1.67.51-1.45-.03-3.55-.02-5.59-.05-3.65-.05-7.08-.11-6.01-.01.63.41,5.29.53,9.87.5,4.6-.04,9.1-.32,9.57.24,1.21,0,2.66-.08,2.39-.65,2.02.33-.64,1.05.81,1.62.03-.09-.11-.28.35-.25,0,0,.35.19.7.37.36.17.71.34.71.34,3.18-.86,7.99-.23,11.11-1.93-.85.74-1.77,1.97-3.9,2.81l-.42-.26c-.29.2-2.09.56-2,1.12,2.16.21,3.97-.14,6.07-1.03.43.09.93.16,1.27.24-.02-.07-.07-.12-.07-.21.77.2.71.27.49.54-.03.05-.06.1-.13.15.79.66,2.84.06,5.04-.87,2.23-.88,4.64-2.04,6.54-2.14.99-.53.02-.3,1.24-.98,3.8-.43,6.41-.74,10.16-1.4.98-1.01,1-1.31-.62-1.62,0,0,.71-.14,1.42-.29l1.41-.26c-1.99,2.45,5.55.44,3.27,2.95.88.25,2.49-.06,3.9-.65.05-.49.14-1.28,2.03-1.64,2.71.19,2.06.1,4.27.38.57.56-.18.88-.03,1.37,3.16-1.06,2.93,1,5.88.82.47-.05,1.04-.11,1.65-.18.6-.03,1.22-.07,1.8-.14,1.16-.16,2.09-.39,2.16-.9,2.4.29,2.28,1.06,1.93,1.91,0,0,.45.09.88.21.43.11.86.21.86.21-1.38-.27-2.92-.4-4.46-.58-1.63-.06-3.26-.23-4.98-.2-3.4-.08-6.86.13-10.39.57,7.77.35,16.19,1.97,21.36,3.76.69.21,1.35.49,2.05.7.76.32,1.41.48,2.29.83,1.56.54,3.72,1.35,5.94,1.95,4.68,1.36,10.09,1.73,14.35.54.23,1.12,1.63,2.24,3.72,3.31,2.02.95,4.76,1.87,7.3,2.32,5.16,1.1,10.35.9,10.57.35,4.16-1.05,8.64-2.5,12.82-4.29,3.31-1.39,6.38-3.04,8.87-4.37,2.54-1.33,4.72-2.47,6.95-3.26,4.42-1.7,9.55-2.39,15.07-2.57,5.53-.14,11.44.23,16.24,1.28,2.37.58,4.34,1.25,6,2.24l1.4.87,1.77,1.16c.74.47,1.36.9,2.31,1.45.87.52,1.76,1.04,2.82,1.54,2.2,1.16,5.2,2.22,8.36,3.03,1.6.42,3.16.65,4.88.98,1.64.24,3.28.41,5.03.61,3.33.25,6.83.43,10.47.4,1.78.06,3.79-.14,5.71-.22.95-.02,2.02-.2,3.04-.31,1.04-.15,2.03-.2,3.13-.44,4.2-.65,9-2.23,12.72-3.97,1.54-.73,3.05-1.45,4.53-2.15.52-.22,1.04-.44,1.54-.66.43-.15.85-.29,1.27-.43,1.6-.43,3.11-.72,4.89-.79.79-.1,1.72-.07,2.54-.07.82,0,1.56,0,2.34.07,1.74.1,3.45.19,5.22.39-2.92-.48-2.9-.39-5.82-.71,3.58-.68,7.32-1.2,10.62-1.35,3.33-.14,6.37-.01,9.39.58-.87-.9-.84-1.51-3.23-2.93.03-.06,3.02,1.18,3.02,1.18,1.67-.38,4.15.02,6.96.91,2.8.84,5.93,2.01,8.2,2.37-.6.27-.1.74.94,1.28,1.09.48,2.67,1.13,4.25,1.53l-1.09-.88c5.88,1.77,12.38,2.22,18.36,2,6.01-.17,12.16-1.21,17.27-2.64,1.43-.39,2.56-.41,3.28-.33,0,0,.58-.24,1.44-.6.82-.38,1.91-.88,2.99-1.38l3.98-1.94c-.06,1.27,6.64-1.32,3.33.69,5.04-3.35,10.57-3.53,16.2-5.24,5.07-.26,10.62-.26,14.84.63,2.23.45,3.7.97,5.7,2.19,1.06.63,2.23,1.45,3.85,2.39,1.52.91,3.39,1.81,5.22,2.43,3.69,1.24,7.3,1.73,10.59,1.81,3.33.12,6.48-.05,9.69-.37,1.59-.12,3.27-.47,4.89-.71,1.69-.42,3.32-.72,5.03-1.38,3.36-1.1,6.74-3.22,9.04-5.19l-.75-.03c1.71-1.41,2.88-2.64,4.23-3.64,1.31-1.08,2.85-1.9,4.57-2.65,3.5-1.41,7.79-1.99,12.61-1.5,3.48-.8,7.77-.95,11.61-1.16,3.82-.13,7.2-.23,8.92-1.1,4.13.85,7.06,1.4,10.01,1.95,2.93.62,5.87,1.23,9.88,2.83-.72-1.04,1.31-.5,3.19.15.49.17.89.3,1.42.52.37.13.64.19.83.21.38.02.38-.21-.33-.93-.78-.72-1.2-1.13-1.7-1.55ZM134.41,462.61c-.65-.2-.4-.43.28-.67.07.31-.02.57-.28.67ZM139.09,460.94c.2-.04.39-.08.56-.11-.54-.55-2.55-.92-3.68-1.17-.12.41.27.57.19.75-.4.07-.92.05-1.44.01-.17-.03-.33-.05-.5-.07l-.27-.16c-.37,0-.76-.05-1.11-.1-.25-.09-.45-.22-.59-.42.29-.09.81.16,1.19.28-.85-.25,1.67-.57,4.17-.86.87.6,2.87,1.14,2.54,1.62.15-.03.27-.06.36-.09l.64.4c-.47.07-1.26.03-2.06-.1ZM385.87,367.31c17.55-9.74,42.36-11.35,58.48,2.08-20.08-5.04-38.05-3.15-58.48-2.08ZM434.54,389.83c-14.34-4.7-26.34-1.83-41.14-1.47,11.18-9.08,31.83-11.45,41.14,1.47ZM377.36,344.38c23.68-11.81,55.31-12.17,76.94,4.29-25.76-8.22-50.39-7.31-76.94-4.29ZM365.53,321.33c30.88-14.82,70.29-13,99.55,4.87-30.92-13.54-66.43-15.5-99.55-4.87ZM365.53,321.34h0s0,0,0,0c0,0,0,0,0,0ZM357.04,300.57c36.74-17.61,83.1-16.48,118.81,3.2,0,0,0,0,0,0-37.16-15.26-79.53-16.73-118.8-3.2ZM357.04,300.57h0s0,0,0,0c0,0,0,0,0,0ZM490,453.9c-5.82-13.61-8.21-25.72-18.44-36.8,15.62,3.1,22.05,22.85,18.44,36.8ZM562.55,451.36h0s0,0,0,0ZM607.99,449.51c-8.66-46.41-28.94-88.49-60.4-123.75,37.63,28.52,60.92,76.58,60.4,123.75ZM584.96,450.45h0c-4.03-41.34-22.99-79.26-52.33-106.71,0,0,0,0,0,0,32.75,24.28,53.06,65.98,52.33,106.71ZM562.55,451.36c-4.11-34.54-20.66-66.01-45.83-88.5,0,0,0,0,0,0,28.42,19.17,46.47,54.26,45.83,88.5ZM536.68,450.19c-8.3-25.4-17.72-48.18-35.9-68.18,23.97,12.83,36.79,41.73,35.9,68.18ZM512.28,451.99c-7.52-19.02-13.28-36.15-26.22-52.31,18.92,9.07,27.78,32.29,26.22,52.31ZM485.97,282.69c-45.15-13.94-91.84-14.88-137.66-3.46,42.68-20.1,96.07-18.91,137.66,3.46ZM344.56,416.81c-10.24,11.08-12.62,23.19-18.44,36.8-3.6-13.95,2.82-33.71,18.44-36.8ZM253.57,451.08h0s0,0,0,0h0ZM231.16,450.16h0s0,0,0,0h0ZM330.06,399.39c-12.94,16.17-18.69,33.29-26.22,52.31-1.56-20.01,7.29-43.24,26.22-52.31ZM315.35,381.72c-18.18,20.01-27.6,42.78-35.9,68.18-.88-26.45,11.93-55.36,35.9-68.18ZM299.4,362.58h0s0,0,0,0c0,0,0,0,0,0ZM299.4,362.58c-25.17,22.49-41.72,53.96-45.83,88.49-.63-34.24,17.41-69.32,45.83-88.49ZM283.48,343.46s0,0,0,0c-29.33,27.45-48.29,65.36-52.32,106.7-.73-40.73,19.58-82.42,52.33-106.7ZM268.52,325.48c-31.45,35.26-51.74,77.33-60.39,123.75-.53-47.17,22.76-95.23,60.39-123.75ZM459.81,457.96c.01.36-1.29.27-1.94.41-.18-.24-1.07-.37-2.49-.43-1.43-.05-3.39-.09-5.73.13-2.3.13-5.08.5-8.08,1.04-3.05.66-6.39,1.46-9.69,2.93-3.28,1.39-6.23,3.26-8.29,4.62-2.1,1.4-3.58,2.26-5.14,2.96-1.49.69-2.98,1.08-4.07,1.39-1.17.21-1.97.31-2.25.23-.04.01-.1.02-.14.04.46-.91.73-1.93.73-3.02,0-3.66-2.97-6.63-6.63-6.63s-6.63,2.97-6.63,6.63c0,1,.23,1.94.62,2.8-.21-.03-.42-.06-.62-.09-3.48-.54-6.79-1.33-9.17-2.47-1.21-.55-2.2-1.17-3.25-1.88-.62-.43-1.23-.86-1.83-1.29l-1.08-.75-1.32-.86c-.81-.55-1.99-1.17-2.97-1.72-1.07-.54-2.2-1.03-3.3-1.5-1.11-.4-2.22-.76-3.32-1.1-1.09-.31-2.13-.5-3.18-.72-1.93-.07-3.71.17-5.53.27-1.76.17-3.35.49-4.74.81-2.58-.89-3.08.56-6.13.28-7.76-3.36-12.57-1.4-8.32-.56-.67.08-1.35.16-2.03.24,4.17-30.97,30.69-54.85,62.8-54.85s58.5,23.77,62.77,54.62c-2.88-.8-5.86-1.39-9.05-1.53Z"/>
  <path d="M140.96,458.69c-.27.04-.59.08-.95.13,0,0,.02,0,.02.01.36-.04.67-.09.92-.14Z"/>
  <path d="M140.15,460.72c-.14.03-.31.07-.5.1.04.05.1.09.12.14.21-.08.32-.16.38-.24Z"/>
</svg>